<svg width="30" height="30" viewBox="0 0 30 30" fill="none" xmlns="http://www.w3.org/2000/svg">
<path fill-rule="evenodd" clip-rule="evenodd" d="M13.5 5.60852V9H12C7.2435 9 3.2265 12.162 1.935 16.5H0V22.5H1.935C3.2265 26.838 7.2435 30 12 30C13.962 30 16.038 30 18 30C22.7565 30 26.7735 26.838 28.065 22.5H30V16.5H28.065C26.7735 12.162 22.7565 9 18 9H16.5V5.61749C17.4045 5.09849 18.0135 4.12351 18.0135 3.00751C18.0135 1.34701 16.6665 0 15.0075 0C13.347 0 12 1.34701 12 3.00751C12 4.11751 12.603 5.08802 13.5 5.60852ZM4.5 19.5C4.5 20.328 4.5 19.5 4.5 19.5C4.5 15.3585 7.8585 12 12 12C13.962 12 16.038 12 18 12C22.1415 12 25.5 15.3585 25.5 19.5C25.5 19.506 25.5 19.5135 25.5 19.5195C25.5 23.6415 22.1415 27 18 27C16.038 27 13.962 27 12 27C7.8585 27 4.5 23.6415 4.5 19.5ZM18 18V21H21V18H18ZM9 18V21H12V18H9Z" fill="#015DFD"/>
</svg>
